<svg width="25" height="15" viewBox="0 0 25 15" fill="none" xmlns="http://www.w3.org/2000/svg">
<path d="M1.21875 3.4375L11.7188 13.9687C11.8438 14.0937 11.9792 14.1821 12.125 14.2337C12.2708 14.2862 12.4271 14.3125 12.5938 14.3125C12.7604 14.3125 12.9167 14.2862 13.0625 14.2337C13.2083 14.1821 13.3438 14.0937 13.4688 13.9687L24 3.4375C24.2917 3.14583 24.4375 2.78125 24.4375 2.34375C24.4375 1.90625 24.2813 1.53125 23.9688 1.21875C23.6563 0.906251 23.2917 0.750001 22.875 0.750001C22.4583 0.750001 22.0938 0.906251 21.7813 1.21875L12.5938 10.4062L3.40625 1.21875C3.11458 0.927084 2.75542 0.78125 2.32875 0.78125C1.90125 0.78125 1.53125 0.9375 1.21875 1.25C0.90625 1.5625 0.75 1.92708 0.75 2.34375C0.75 2.76042 0.90625 3.125 1.21875 3.4375Z" fill="black"/>
</svg>
