<svg width="23" height="30" viewBox="0 0 23 30" fill="none" xmlns="http://www.w3.org/2000/svg">
<path d="M11.5 30C11.5 30 23 19.3388 23 11.25C23 8.26631 21.7884 5.40483 19.6317 3.29505C17.4751 1.18526 14.55 0 11.5 0C8.45001 0 5.52494 1.18526 3.36827 3.29505C1.2116 5.40483 4.54484e-08 8.26631 0 11.25C0 19.3388 11.5 30 11.5 30ZM11.5 16.875C9.97501 16.875 8.51247 16.2824 7.43414 15.2275C6.3558 14.1726 5.75 12.7418 5.75 11.25C5.75 9.75816 6.3558 8.32742 7.43414 7.27252C8.51247 6.21763 9.97501 5.625 11.5 5.625C13.025 5.625 14.4875 6.21763 15.5659 7.27252C16.6442 8.32742 17.25 9.75816 17.25 11.25C17.25 12.7418 16.6442 14.1726 15.5659 15.2275C14.4875 16.2824 13.025 16.875 11.5 16.875Z" fill="#423D8A"/>
</svg>
