<svg width="20" height="20" viewBox="0 0 20 20" fill="none" xmlns="http://www.w3.org/2000/svg">
<path d="M15.465 20C15.2703 19.9994 15.0763 19.9776 14.8861 19.9348C11.2665 19.1691 7.93176 17.3737 5.26585 14.7553C2.65684 12.1312 0.847349 8.79006 0.0563121 5.13623C-0.036961 4.68086 -0.0140681 4.20859 0.122788 3.76488C0.259645 3.32117 0.505859 2.92095 0.837743 2.60271L3.1531 0.323725C3.27136 0.209354 3.41187 0.121771 3.56547 0.066692C3.71907 0.0116131 3.8823 -0.00972344 4.04451 0.00407474C4.21269 0.0220183 4.375 0.0774245 4.52 0.166397C4.66501 0.255369 4.78919 0.375748 4.88382 0.519066L7.77801 4.89354C7.88654 5.06327 7.93894 5.26415 7.92747 5.46662C7.91601 5.66908 7.8413 5.86244 7.71434 6.01823L6.26145 7.79406C6.84009 9.10371 7.65955 10.2874 8.67521 11.2806C9.6843 12.3099 10.877 13.1317 12.1888 13.7017L13.9889 12.2396C14.1401 12.1174 14.3241 12.0451 14.5164 12.0324C14.7087 12.0197 14.9003 12.0672 15.0656 12.1685L19.4358 15.0572C19.5858 15.1488 19.7135 15.2739 19.8095 15.4231C19.9055 15.5724 19.9672 15.7419 19.9901 15.919C20.0129 16.0961 19.9962 16.2761 19.9414 16.4457C19.8865 16.6153 19.7948 16.77 19.6731 16.8982L17.4157 19.1831C17.1592 19.444 16.8549 19.6505 16.5201 19.7907C16.1853 19.9309 15.8267 20.002 15.465 20Z" fill="white"/>
</svg>
