<svg width="18" height="15" viewBox="0 0 18 15" fill="none" xmlns="http://www.w3.org/2000/svg">
<path d="M17.2991 0.627799L14.6198 14.1359C14.6198 14.1359 14.2452 15.0727 13.2147 14.623L7.03215 9.88303L4.78402 8.79647L0.999572 7.52241C0.999572 7.52241 0.418791 7.31639 0.362541 6.86674C0.306291 6.4171 1.01832 6.17358 1.01832 6.17358L16.0624 0.272019C16.0624 0.272019 17.2989 -0.271262 17.2989 0.628034" fill="white"/>
<path d="M6.5543 13.9849C6.5543 13.9849 6.37383 13.968 6.14883 13.256C5.92418 12.5441 4.78125 8.79713 4.78125 8.79713L13.8677 3.02682C13.8677 3.02682 14.3924 2.7083 14.3736 3.02682C14.3736 3.02682 14.4673 3.08307 14.1861 3.34533C13.9052 3.60771 7.04824 9.77142 7.04824 9.77142" fill="#D2E5F1" fill-opacity="0.99"/>
<path d="M9.40426 11.7009L6.95891 13.9305C6.95891 13.9305 6.76766 14.0756 6.55859 13.9847L7.02688 9.84326" fill="#B5CFE4"/>
</svg>
