<svg width="30" height="31" viewBox="0 0 30 31" fill="none" xmlns="http://www.w3.org/2000/svg">
<path d="M7.92935 25.9952L8.41977 26.2405C10.4635 27.4666 12.7522 28.0388 15.0411 28.0388C22.2346 28.0388 28.1201 22.1533 28.1201 14.9598C28.1201 11.5266 26.7304 8.17514 24.2782 5.72279C21.8258 3.27045 18.556 1.88086 15.0411 1.88086C7.84767 1.88086 1.96202 7.76639 2.04381 15.0416C2.04381 17.4939 2.7795 19.8645 4.00562 21.908L4.33257 22.3985L3.02477 27.2214L7.92935 25.9952Z" fill="#00E676"/>
<path d="M25.6675 4.41415C22.8882 1.55318 19.0463 0 15.1226 0C6.78482 0 0.0817956 6.7847 0.163474 15.0408C0.163474 17.6566 0.899166 20.1907 2.1254 22.4795L0 30.2452L7.92913 28.2016C10.1362 29.4278 12.5884 30 15.0409 30C23.297 30 30 23.2152 30 14.9592C30 10.9537 28.4468 7.19344 25.6676 4.41415H25.6675ZM15.1226 27.466C12.9155 27.466 10.7084 26.8939 8.8283 25.7494L8.33788 25.5042L3.59678 26.7303L4.82289 22.071L4.49595 21.5804C0.899166 15.7767 2.61582 8.09261 8.50135 4.49583C14.3869 0.899166 21.9891 2.61582 25.5858 8.50135C29.1825 14.3869 27.4659 21.9891 21.5804 25.5858C19.7002 26.812 17.4114 27.4659 15.1226 27.4659V27.466ZM22.316 18.3925L21.4169 17.9838C21.4169 17.9838 20.1091 17.4116 19.2916 17.0028C19.2098 17.0028 19.1281 16.921 19.0463 16.921C18.801 16.921 18.6376 17.0028 18.4741 17.0846C18.4741 17.0846 18.3924 17.1663 17.248 18.4742C17.1662 18.6377 17.0027 18.7195 16.8392 18.7195H16.7574C16.6758 18.7195 16.5123 18.6377 16.4305 18.556L16.0217 18.3925C15.1226 17.9838 14.3052 17.4932 13.6512 16.8393C13.4877 16.6759 13.2424 16.5124 13.079 16.3489C12.5068 15.7767 11.9345 15.1227 11.5259 14.387L11.4441 14.2235C11.3624 14.1417 11.3624 14.0601 11.2806 13.8966C11.2806 13.7331 11.2806 13.5696 11.3624 13.4878C11.3624 13.4878 11.6894 13.0791 11.9345 12.8339C12.0981 12.6703 12.1798 12.4252 12.3433 12.2617C12.5068 12.0165 12.5886 11.6895 12.5068 11.4442C12.4251 11.0355 11.4441 8.82842 11.199 8.33799C11.0354 8.09272 10.872 8.01105 10.6267 7.92925H9.72758C9.56399 7.92925 9.40063 8.01105 9.23704 8.01105L9.15525 8.09272C8.99177 8.17452 8.8283 8.33799 8.66483 8.41967C8.50135 8.58326 8.41956 8.74662 8.25608 8.91021C7.68386 9.6459 7.35692 10.5451 7.35692 11.4442C7.35692 12.0981 7.52039 12.7521 7.76566 13.3244L7.84746 13.5696C8.58315 15.1227 9.56399 16.5124 10.872 17.7385L11.199 18.0655C11.4441 18.3107 11.6894 18.4742 11.8529 18.7194C13.5695 20.1909 15.5313 21.2535 17.7384 21.8257C17.9837 21.9074 18.3106 21.9074 18.5559 21.9892H19.3733C19.782 21.9892 20.2724 21.8257 20.5995 21.6622C20.8446 21.4988 21.0081 21.4988 21.1716 21.3353L21.3352 21.1717C21.4986 21.0082 21.6621 20.9265 21.8256 20.7631C21.9891 20.5996 22.1525 20.4361 22.2343 20.2725C22.3978 19.9456 22.4795 19.5368 22.5613 19.1282V18.556C22.5613 18.556 22.4795 18.4742 22.316 18.3925Z" fill="white"/>
</svg>
