<svg width="17" height="14" viewBox="0 0 17 14" fill="none" xmlns="http://www.w3.org/2000/svg">
<path d="M1.2872 5.80138C6.1802 3.64888 12.5117 1.02458 13.386 0.661278C15.6785 -0.289322 16.382 -0.107322 16.0313 1.99828C15.7793 3.51168 15.0527 8.52157 14.4731 11.6401C14.1294 13.4895 13.358 13.7086 12.1456 12.9085C11.5625 12.5235 8.61901 10.5768 7.97991 10.1197C7.3968 9.70318 6.5925 9.20198 7.6012 8.21498C7.9603 7.86358 10.313 5.61658 12.1463 3.86798C12.3864 3.63838 12.0847 3.26108 11.8075 3.44518C9.33651 5.08388 5.9107 7.35818 5.4746 7.65428C4.8159 8.10158 4.1831 8.30668 3.0477 7.98048C2.1895 7.73408 1.3516 7.44008 1.0254 7.32808C-0.231096 6.89688 0.0671047 6.33828 1.2872 5.80138Z" fill="white"/>
</svg>
