<?xml version="1.0" encoding="utf-8"?><svg xmlns="http://www.w3.org/2000/svg" xmlns:xlink="http://www.w3.org/1999/xlink"><symbol viewBox="0 0 25 15" id="arrow-down" xmlns="http://www.w3.org/2000/svg">
    <path d="M1.21875 3.4375L11.7188 13.9687C11.8438 14.0937 11.9792 14.1821 12.125 14.2337C12.2708 14.2862 12.4271 14.3125 12.5938 14.3125C12.7604 14.3125 12.9167 14.2862 13.0625 14.2337C13.2083 14.1821 13.3438 14.0937 13.4688 13.9687L24 3.4375C24.2917 3.14583 24.4375 2.78125 24.4375 2.34375C24.4375 1.90625 24.2813 1.53125 23.9688 1.21875C23.6563 0.906251 23.2917 0.750001 22.875 0.750001C22.4583 0.750001 22.0938 0.906251 21.7813 1.21875L12.5938 10.4062L3.40625 1.21875C3.11458 0.927084 2.75542 0.78125 2.32875 0.78125C1.90125 0.78125 1.53125 0.9375 1.21875 1.25C0.90625 1.5625 0.75 1.92708 0.75 2.34375C0.75 2.76042 0.90625 3.125 1.21875 3.4375Z"/>
</symbol><symbol viewBox="0 0 11 19" id="experts-slider-arrow" xmlns="http://www.w3.org/2000/svg">
    <path d="M2.3 18.575L10.725 10.175C10.825 10.075 10.8957 9.96667 10.937 9.85C10.979 9.73333 11 9.60833 11 9.475C11 9.34167 10.979 9.21667 10.937 9.1C10.8957 8.98333 10.825 8.875 10.725 8.775L2.3 0.35C2.06667 0.116667 1.775 0 1.425 0C1.075 0 0.775001 0.125 0.525001 0.375C0.275001 0.625 0.150001 0.916667 0.150001 1.25C0.150001 1.58333 0.275001 1.875 0.525001 2.125L7.875 9.475L0.525001 16.825C0.291667 17.0583 0.175 17.3457 0.175 17.687C0.175 18.029 0.3 18.325 0.55 18.575C0.8 18.825 1.09167 18.95 1.425 18.95C1.75833 18.95 2.05 18.825 2.3 18.575Z"/>
</symbol><symbol viewBox="0 0 23 30" id="location-icon" xmlns="http://www.w3.org/2000/svg">
    <path d="M11.5 30C11.5 30 23 19.3388 23 11.25C23 8.26631 21.7884 5.40483 19.6317 3.29505C17.4751 1.18526 14.55 0 11.5 0C8.45001 0 5.52494 1.18526 3.36827 3.29505C1.2116 5.40483 4.54484e-08 8.26631 0 11.25C0 19.3388 11.5 30 11.5 30ZM11.5 16.875C9.97501 16.875 8.51247 16.2824 7.43414 15.2275C6.3558 14.1726 5.75 12.7418 5.75 11.25C5.75 9.75816 6.3558 8.32742 7.43414 7.27252C8.51247 6.21763 9.97501 5.625 11.5 5.625C13.025 5.625 14.4875 6.21763 15.5659 7.27252C16.6442 8.32742 17.25 9.75816 17.25 11.25C17.25 12.7418 16.6442 14.1726 15.5659 15.2275C14.4875 16.2824 13.025 16.875 11.5 16.875Z"/>
</symbol><symbol viewBox="0 0 198.000000 42.000000" preserveAspectRatio="xMidYMid meet" id="logotype" xmlns="http://www.w3.org/2000/svg">
    <g transform="translate(0.000000,42.000000) scale(0.100000,-0.100000)">
        <path d="M64 355 c28 -26 28 -26 24 -146 -3 -113 -5 -122 -27 -140 -23 -19 -22 -19 147 -19 96 0 183 5 199 11 44 16 90 67 103 115 l13 44 52 0 c41 0 56 5 73 23 30 32 29 81 -3 112 -23 23 -31 25 -127 24 -82 0 -98 -3 -80 -11 12 -6 25 -22 28 -35 11 -43 -2 -183 -18 -199 -13 -13 -20 -8 -66 45 -29 33 -52 62 -52 66 0 3 13 18 30 32 37 31 38 55 3 83 -49 38 -123 6 -123 -53 0 -17 7 -39 17 -49 15 -17 14 -20 -25 -57 -46 -42 -54 -79 -26 -119 14 -20 14 -22 -3 -22 -10 0 -29 7 -41 16 -21 14 -22 22 -22 139 0 122 0 124 26 144 l27 21 -78 0 -78 0 27 -25z m288 -9 c12 -18 9 -40 -8 -64 -19 -28 -31 -28 -55 1 -23 28 -24 63 -1 76 19 11 53 4 64 -13z m236 4 c44 -41 15 -120 -43 -120 -24 0 -25 2 -25 70 0 66 1 70 23 70 13 0 33 -9 45 -20z m-241 -195 c54 -59 59 -67 42 -75 -10 -6 -29 -10 -43 -10 -24 0 -26 4 -27 43 -1 41 -1 41 -10 12 -5 -16 -16 -36 -26 -42 -14 -11 -19 -9 -35 15 -10 15 -18 37 -18 48 0 22 35 74 49 74 5 0 35 -29 68 -65z"/>
        <path d="M846 318 c-8 -70 -6 -172 3 -228 6 -32 9 2 10 118 0 89 -1 162 -3 162 -2 0 -6 -24 -10 -52z"/>
        <path d="M1040 305 l0 -65 40 0 c22 0 40 5 40 10 0 6 -13 10 -30 10 -30 0 -30 1 -30 55 0 30 -4 55 -10 55 -6 0 -10 -28 -10 -65z"/>
        <path d="M1620 305 c0 -50 3 -65 14 -65 10 0 16 13 18 38 2 25 8 37 18 37 10 0 16 -12 18 -37 5 -56 24 -46 20 10 -3 44 -5 47 -30 47 -20 -1 -28 4 -28 17 0 10 -7 18 -15 18 -12 0 -15 -14 -15 -65z"/>
        <path d="M1850 305 c0 -65 12 -85 24 -42 l7 22 16 -22 c8 -13 22 -23 30 -23 11 0 10 6 -6 28 -19 27 -19 30 -4 45 22 22 8 35 -15 14 -26 -24 -32 -21 -32 13 0 17 -4 30 -10 30 -6 0 -10 -28 -10 -65z"/>
        <path d="M1149 324 c-11 -13 -9 -14 13 -9 14 4 28 2 32 -3 3 -5 -8 -12 -25 -16 -25 -5 -30 -10 -27 -28 2 -19 10 -23 41 -25 36 -1 37 0 37 36 0 56 -40 82 -71 45z m46 -54 c-3 -5 -13 -10 -21 -10 -8 0 -14 5 -14 10 0 6 9 10 21 10 11 0 17 -4 14 -10z"/>
        <path d="M1250 331 c0 -5 10 -11 22 -13 21 -3 21 -3 -5 -34 -15 -18 -27 -35 -27 -38 0 -3 18 -6 40 -6 42 0 56 16 19 22 l-21 3 21 27 c29 37 26 48 -14 48 -19 0 -35 -4 -35 -9z"/>
        <path d="M1363 333 c-24 -9 -13 -23 12 -17 15 4 25 2 25 -5 0 -6 -6 -11 -13 -11 -7 0 -22 -6 -32 -14 -28 -20 -5 -44 40 -43 33 1 35 3 35 37 0 51 -25 71 -67 53z m37 -63 c0 -5 -7 -10 -15 -10 -8 0 -15 5 -15 10 0 6 7 10 15 10 8 0 15 -4 15 -10z"/>
        <path d="M1450 289 c0 -37 4 -49 15 -49 11 0 15 11 15 35 0 22 6 38 15 41 25 10 17 21 -15 22 -29 1 -30 0 -30 -49z"/>
        <path d="M1526 317 c-20 -30 -10 -66 21 -73 25 -7 64 19 50 33 -4 3 -13 1 -19 -5 -20 -20 -38 -14 -38 12 0 31 16 42 36 25 19 -16 30 -4 14 16 -18 22 -47 18 -64 -8z"/>
        <path d="M1742 293 c3 -48 3 -48 41 -50 l37 -1 0 49 c0 57 -17 66 -22 12 -2 -26 -8 -38 -18 -38 -10 0 -16 12 -18 38 -5 55 -24 45 -20 -10z"/>
        <path d="M1047 175 c-9 -8 -13 -24 -10 -35 3 -11 0 -26 -6 -34 -26 -31 6 -55 62 -48 23 4 27 9 27 34 0 25 -2 28 -14 19 -18 -15 -34 5 -17 22 16 16 13 44 -5 51 -21 8 -20 8 -37 -9z m33 -20 c0 -8 -4 -15 -10 -15 -5 0 -10 7 -10 15 0 8 5 15 10 15 6 0 10 -7 10 -15z m-2 -81 c-10 -10 -28 6 -28 24 0 15 1 15 17 -1 9 -9 14 -19 11 -23z"/>
        <path d="M1190 120 c0 -47 3 -60 15 -60 8 0 15 9 15 20 0 15 7 20 25 20 31 0 50 32 35 60 -8 15 -21 20 -50 20 l-40 0 0 -60z m70 19 c0 -12 -7 -19 -20 -19 -14 0 -20 7 -20 24 0 19 4 23 20 19 11 -3 20 -14 20 -24z"/>
        <path d="M1500 165 c0 -8 -5 -15 -12 -15 -9 0 -9 -3 0 -12 7 -7 12 -27 12 -45 0 -27 4 -33 22 -33 17 0 19 3 10 12 -16 16 -15 55 1 62 10 5 10 7 0 12 -7 3 -13 12 -13 20 0 8 -4 14 -10 14 -5 0 -10 -7 -10 -15z"/>
        <path d="M1315 140 c-5 -8 0 -10 12 -8 28 4 29 -16 1 -22 -25 -6 -37 -38 -19 -50 6 -3 25 -4 42 -2 28 4 30 7 27 46 -3 36 -6 41 -30 44 -14 2 -29 -2 -33 -8z m45 -49 c0 -14 -18 -23 -30 -16 -6 4 -8 11 -5 16 8 12 35 12 35 0z"/>
        <path d="M1410 104 c0 -24 5 -44 10 -44 6 0 10 14 10 30 0 18 6 33 15 36 23 9 18 22 -10 22 -23 0 -25 -4 -25 -44z"/>
        <path d="M1560 103 c0 -23 5 -43 10 -43 6 0 10 9 10 19 0 30 11 51 26 51 9 0 14 -12 14 -35 0 -25 4 -35 16 -35 12 0 14 9 12 43 l-3 42 -42 1 -43 1 0 -44z"/>
        <path d="M1682 138 c-14 -14 -15 -47 -3 -67 11 -17 58 -18 74 -1 9 9 5 11 -20 5 -26 -5 -33 -3 -33 9 0 11 9 16 30 16 18 0 30 5 30 13 0 19 -21 37 -45 37 -12 0 -26 -5 -33 -12z m58 -19 c0 -5 -9 -9 -20 -9 -19 0 -26 11 -14 23 8 8 34 -3 34 -14z"/>
        <path d="M1780 103 c0 -32 4 -43 15 -43 10 0 15 11 15 35 0 24 5 35 15 35 8 0 15 4 15 9 0 5 -13 9 -30 9 -29 -1 -30 -3 -30 -45z"/>
        <path d="M1857 137 c-7 -19 4 -33 31 -41 35 -11 27 -29 -10 -21 -26 6 -30 4 -21 -5 16 -17 63 -16 74 1 14 22 11 26 -21 38 -38 13 -41 34 -4 25 19 -5 25 -4 20 5 -10 15 -63 14 -69 -2z"/>
        <path d="M541 76 c-9 -10 -8 -16 3 -25 10 -9 16 -8 25 3 9 10 8 16 -3 25 -10 9 -16 8 -25 -3z"/>
    </g>
</symbol><symbol viewBox="0 0 20 20" id="phone" xmlns="http://www.w3.org/2000/svg">
    <path d="M15.465 20C15.2703 19.9994 15.0763 19.9776 14.8861 19.9348C11.2665 19.1691 7.93176 17.3737 5.26585 14.7553C2.65684 12.1312 0.847349 8.79006 0.0563121 5.13623C-0.036961 4.68086 -0.0140681 4.20859 0.122788 3.76488C0.259645 3.32117 0.505859 2.92095 0.837743 2.60271L3.1531 0.323725C3.27136 0.209354 3.41187 0.121771 3.56547 0.066692C3.71907 0.0116131 3.8823 -0.00972344 4.04451 0.00407474C4.21269 0.0220183 4.375 0.0774245 4.52 0.166397C4.66501 0.255369 4.78919 0.375748 4.88382 0.519066L7.77801 4.89354C7.88654 5.06327 7.93894 5.26415 7.92747 5.46662C7.91601 5.66908 7.8413 5.86244 7.71434 6.01823L6.26145 7.79406C6.84009 9.10371 7.65955 10.2874 8.67521 11.2806C9.6843 12.3099 10.877 13.1317 12.1888 13.7017L13.9889 12.2396C14.1401 12.1174 14.3241 12.0451 14.5164 12.0324C14.7087 12.0197 14.9003 12.0672 15.0656 12.1685L19.4358 15.0572C19.5858 15.1488 19.7135 15.2739 19.8095 15.4231C19.9055 15.5724 19.9672 15.7419 19.9901 15.919C20.0129 16.0961 19.9962 16.2761 19.9414 16.4457C19.8865 16.6153 19.7948 16.77 19.6731 16.8982L17.4157 19.1831C17.1592 19.444 16.8549 19.6505 16.5201 19.7907C16.1853 19.9309 15.8267 20.002 15.465 20Z"/>
</symbol><symbol viewBox="0 0 84 84" id="player-btn" xmlns="http://www.w3.org/2000/svg">
    <path d="M31.583 60.75L60.7497 42L31.583 23.25V60.75ZM41.9997 83.6667C36.2358 83.6667 30.8191 82.5722 25.7497 80.3833C20.6802 78.1972 16.2705 75.2292 12.5205 71.4792C8.77051 67.7292 5.80245 63.3194 3.61634 58.25C1.42745 53.1805 0.333008 47.7639 0.333008 42C0.333008 36.2361 1.42745 30.8194 3.61634 25.75C5.80245 20.6806 8.77051 16.2708 12.5205 12.5208C16.2705 8.77083 20.6802 5.80138 25.7497 3.61249C30.8191 1.42638 36.2358 0.333328 41.9997 0.333328C47.7636 0.333328 53.1802 1.42638 58.2497 3.61249C63.3191 5.80138 67.7289 8.77083 71.4789 12.5208C75.2289 16.2708 78.1969 20.6806 80.383 25.75C82.5719 30.8194 83.6664 36.2361 83.6664 42C83.6664 47.7639 82.5719 53.1805 80.383 58.25C78.1969 63.3194 75.2289 67.7292 71.4789 71.4792C67.7289 75.2292 63.3191 78.1972 58.2497 80.3833C53.1802 82.5722 47.7636 83.6667 41.9997 83.6667Z"/>
</symbol><symbol viewBox="0 0 48 48" id="star" xmlns="http://www.w3.org/2000/svg">
    <path d="M39.2997 18.08L29.6197 17.24L25.8397 8.34C25.1597 6.72 22.8397 6.72 22.1597 8.34L18.3797 17.26L8.71966 18.08C6.95966 18.22 6.23966 20.42 7.57966 21.58L14.9197 27.94L12.7197 37.38C12.3197 39.1 14.1797 40.46 15.6997 39.54L23.9997 34.54L32.2997 39.56C33.8197 40.48 35.6797 39.12 35.2797 37.4L33.0797 27.94L40.4197 21.58C41.7597 20.42 41.0597 18.22 39.2997 18.08Z"/>
</symbol><symbol viewBox="0 0 18 15" id="start-tg" xmlns="http://www.w3.org/2000/svg">
    <path d="M17.2991 0.627799L14.6198 14.1359C14.6198 14.1359 14.2452 15.0727 13.2147 14.623L7.03215 9.88303L4.78402 8.79647L0.999572 7.52241C0.999572 7.52241 0.418791 7.31639 0.362541 6.86674C0.306291 6.4171 1.01832 6.17358 1.01832 6.17358L16.0624 0.272019C16.0624 0.272019 17.2989 -0.271262 17.2989 0.628034"/>
    <path d="M6.5543 13.9849C6.5543 13.9849 6.37383 13.968 6.14883 13.256C5.92418 12.5441 4.78125 8.79713 4.78125 8.79713L13.8677 3.02682C13.8677 3.02682 14.3924 2.7083 14.3736 3.02682C14.3736 3.02682 14.4673 3.08307 14.1861 3.34533C13.9052 3.60771 7.04824 9.77142 7.04824 9.77142" fill-opacity="0.99"/>
    <path d="M9.40426 11.7009L6.95891 13.9305C6.95891 13.9305 6.76766 14.0756 6.55859 13.9847L7.02688 9.84326"/>
</symbol><symbol viewBox="0 0 30 31" id="start-whatsapp" xmlns="http://www.w3.org/2000/svg">
    <path d="M7.92935 25.9952L8.41977 26.2405C10.4635 27.4666 12.7522 28.0388 15.0411 28.0388C22.2346 28.0388 28.1201 22.1533 28.1201 14.9598C28.1201 11.5266 26.7304 8.17514 24.2782 5.72279C21.8258 3.27045 18.556 1.88086 15.0411 1.88086C7.84767 1.88086 1.96202 7.76639 2.04381 15.0416C2.04381 17.4939 2.7795 19.8645 4.00562 21.908L4.33257 22.3985L3.02477 27.2214L7.92935 25.9952Z"/>
    <path d="M25.6675 4.41415C22.8882 1.55318 19.0463 0 15.1226 0C6.78482 0 0.0817956 6.7847 0.163474 15.0408C0.163474 17.6566 0.899166 20.1907 2.1254 22.4795L0 30.2452L7.92913 28.2016C10.1362 29.4278 12.5884 30 15.0409 30C23.297 30 30 23.2152 30 14.9592C30 10.9537 28.4468 7.19344 25.6676 4.41415H25.6675ZM15.1226 27.466C12.9155 27.466 10.7084 26.8939 8.8283 25.7494L8.33788 25.5042L3.59678 26.7303L4.82289 22.071L4.49595 21.5804C0.899166 15.7767 2.61582 8.09261 8.50135 4.49583C14.3869 0.899166 21.9891 2.61582 25.5858 8.50135C29.1825 14.3869 27.4659 21.9891 21.5804 25.5858C19.7002 26.812 17.4114 27.4659 15.1226 27.4659V27.466ZM22.316 18.3925L21.4169 17.9838C21.4169 17.9838 20.1091 17.4116 19.2916 17.0028C19.2098 17.0028 19.1281 16.921 19.0463 16.921C18.801 16.921 18.6376 17.0028 18.4741 17.0846C18.4741 17.0846 18.3924 17.1663 17.248 18.4742C17.1662 18.6377 17.0027 18.7195 16.8392 18.7195H16.7574C16.6758 18.7195 16.5123 18.6377 16.4305 18.556L16.0217 18.3925C15.1226 17.9838 14.3052 17.4932 13.6512 16.8393C13.4877 16.6759 13.2424 16.5124 13.079 16.3489C12.5068 15.7767 11.9345 15.1227 11.5259 14.387L11.4441 14.2235C11.3624 14.1417 11.3624 14.0601 11.2806 13.8966C11.2806 13.7331 11.2806 13.5696 11.3624 13.4878C11.3624 13.4878 11.6894 13.0791 11.9345 12.8339C12.0981 12.6703 12.1798 12.4252 12.3433 12.2617C12.5068 12.0165 12.5886 11.6895 12.5068 11.4442C12.4251 11.0355 11.4441 8.82842 11.199 8.33799C11.0354 8.09272 10.872 8.01105 10.6267 7.92925H9.72758C9.56399 7.92925 9.40063 8.01105 9.23704 8.01105L9.15525 8.09272C8.99177 8.17452 8.8283 8.33799 8.66483 8.41967C8.50135 8.58326 8.41956 8.74662 8.25608 8.91021C7.68386 9.6459 7.35692 10.5451 7.35692 11.4442C7.35692 12.0981 7.52039 12.7521 7.76566 13.3244L7.84746 13.5696C8.58315 15.1227 9.56399 16.5124 10.872 17.7385L11.199 18.0655C11.4441 18.3107 11.6894 18.4742 11.8529 18.7194C13.5695 20.1909 15.5313 21.2535 17.7384 21.8257C17.9837 21.9074 18.3106 21.9074 18.5559 21.9892H19.3733C19.782 21.9892 20.2724 21.8257 20.5995 21.6622C20.8446 21.4988 21.0081 21.4988 21.1716 21.3353L21.3352 21.1717C21.4986 21.0082 21.6621 20.9265 21.8256 20.7631C21.9891 20.5996 22.1525 20.4361 22.2343 20.2725C22.3978 19.9456 22.4795 19.5368 22.5613 19.1282V18.556C22.5613 18.556 22.4795 18.4742 22.316 18.3925Z"/>
</symbol><symbol viewBox="0 0 17 14" id="telegram" xmlns="http://www.w3.org/2000/svg">
    <path d="M1.2872 5.80138C6.1802 3.64888 12.5117 1.02458 13.386 0.661278C15.6785 -0.289322 16.382 -0.107322 16.0313 1.99828C15.7793 3.51168 15.0527 8.52157 14.4731 11.6401C14.1294 13.4895 13.358 13.7086 12.1456 12.9085C11.5625 12.5235 8.61901 10.5768 7.97991 10.1197C7.3968 9.70318 6.5925 9.20198 7.6012 8.21498C7.9603 7.86358 10.313 5.61658 12.1463 3.86798C12.3864 3.63838 12.0847 3.26108 11.8075 3.44518C9.33651 5.08388 5.9107 7.35818 5.4746 7.65428C4.8159 8.10158 4.1831 8.30668 3.0477 7.98048C2.1895 7.73408 1.3516 7.44008 1.0254 7.32808C-0.231096 6.89688 0.0671047 6.33828 1.2872 5.80138Z"/>
</symbol><symbol viewBox="0 0 17 14" id="tg-contacts" xmlns="http://www.w3.org/2000/svg">
    <path d="M1.2872 5.80138C6.1802 3.64888 12.5117 1.02458 13.386 0.661278C15.6785 -0.289322 16.382 -0.107322 16.0313 1.99828C15.7793 3.51168 15.0527 8.52157 14.4731 11.6401C14.1294 13.4895 13.358 13.7086 12.1456 12.9085C11.5625 12.5235 8.61901 10.5768 7.97991 10.1197C7.3968 9.70318 6.5925 9.20198 7.6012 8.21498C7.9603 7.86358 10.313 5.61658 12.1463 3.86798C12.3864 3.63838 12.0847 3.26108 11.8075 3.44518C9.33651 5.08388 5.9107 7.35818 5.4746 7.65428C4.8159 8.10158 4.1831 8.30668 3.0477 7.98048C2.1895 7.73408 1.3516 7.44008 1.0254 7.32808C-0.231096 6.89688 0.0671047 6.33828 1.2872 5.80138Z"/>
</symbol><symbol viewBox="0 0 28 28" id="vk" xmlns="http://www.w3.org/2000/svg">
    <path d="M14 0C6.26792 0 0 6.26792 0 14C0 21.7321 6.26792 28 14 28C21.7321 28 28 21.7321 28 14C28 6.26792 21.7321 0 14 0ZM19.3842 15.7952C19.3842 15.7952 20.6223 17.0173 20.9271 17.5846C20.9358 17.5962 20.9402 17.6079 20.9431 17.6137C21.0671 17.8223 21.0962 17.9842 21.035 18.1052C20.9329 18.3065 20.5829 18.4056 20.4633 18.4144H18.2758C18.1242 18.4144 17.8062 18.375 17.4212 18.1096C17.1252 17.9025 16.8335 17.5627 16.5492 17.2317C16.1248 16.7387 15.7573 16.3129 15.3869 16.3129C15.3398 16.3128 15.2931 16.3202 15.2483 16.3348C14.9683 16.4252 14.6096 16.8248 14.6096 17.8894C14.6096 18.2219 14.3471 18.4129 14.1619 18.4129H13.16C12.8187 18.4129 11.041 18.2933 9.46604 16.6323C7.53812 14.5979 5.80271 10.5175 5.78812 10.4796C5.67875 10.2156 5.90479 10.0742 6.15125 10.0742H8.36062C8.65521 10.0742 8.75146 10.2535 8.81854 10.4125C8.89729 10.5977 9.18604 11.3342 9.66 12.1625C10.4285 13.5129 10.8996 14.0612 11.2773 14.0612C11.3481 14.0604 11.4177 14.0424 11.48 14.0087C11.9729 13.7346 11.881 11.9773 11.8592 11.6127C11.8592 11.5442 11.8577 10.8267 11.6054 10.4825C11.4246 10.2331 11.1169 10.1383 10.9302 10.1033C11.0058 9.99908 11.1053 9.91454 11.2204 9.85687C11.5587 9.68771 12.1683 9.66292 12.7735 9.66292H13.1104C13.7667 9.67167 13.9358 9.71396 14.1735 9.77375C14.6548 9.88896 14.665 10.1996 14.6227 11.2627C14.6096 11.5646 14.5965 11.9058 14.5965 12.3083C14.5965 12.3958 14.5921 12.4892 14.5921 12.5883C14.5775 13.1294 14.56 13.7433 14.9421 13.9956C14.9919 14.0269 15.0495 14.0435 15.1083 14.0437C15.241 14.0437 15.6406 14.0437 16.7227 12.1873C17.0564 11.5898 17.3464 10.9688 17.5904 10.3294C17.6123 10.2915 17.6765 10.1748 17.7523 10.1296C17.8083 10.1011 17.8703 10.0865 17.9331 10.0873H20.5304C20.8133 10.0873 21.0073 10.1296 21.0437 10.239C21.1079 10.4125 21.0321 10.9419 19.8465 12.5475L19.3171 13.246C18.2423 14.6548 18.2423 14.7262 19.3842 15.7952V15.7952Z"/>
</symbol><symbol viewBox="0 0 17 15" id="whatsup" xmlns="http://www.w3.org/2000/svg">
    <path fill-rule="evenodd" clip-rule="evenodd" d="M7.25966 0.0447587C3.62134 0.470657 0.761875 3.23496 0.385344 6.69036C0.329549 7.20247 0.363343 8.17212 0.45409 8.66154C0.597725 9.43652 0.835411 10.1183 1.20484 10.815L1.39046 11.1652L0.83736 13.0788C0.533142 14.1313 0.289114 14.9958 0.295027 14.9999C0.300973 15.0041 1.2275 14.7768 2.35399 14.4949C3.99391 14.0846 4.4186 13.9883 4.48474 14.0122C4.53016 14.0286 4.74571 14.1187 4.96374 14.2123C5.67188 14.5165 6.41552 14.7182 7.19802 14.8184C7.74184 14.8881 8.69625 14.8877 9.22524 14.8175C10.9616 14.5873 12.5129 13.86 13.7356 12.703C14.375 12.098 14.8001 11.5445 15.2049 10.7905C15.5694 10.1114 15.8266 9.37114 15.9703 8.58732C16.0543 8.12919 16.0542 6.78302 15.9701 6.30293C15.828 5.49184 15.6088 4.84383 15.2341 4.12806C14.1678 2.09117 12.1988 0.63917 9.84444 0.15369C9.11054 0.00235671 8.01603 -0.0437692 7.25966 0.0447587ZM9.32434 1.33991C10.272 1.50592 11.0578 1.8058 11.835 2.29801C13.1619 3.13836 14.1386 4.44327 14.5247 5.89139C14.8082 6.95485 14.7859 8.16273 14.4639 9.18533C13.9432 10.8387 12.7023 12.2305 11.0784 12.9822C10.1342 13.4193 9.26062 13.6098 8.20116 13.6098C6.98686 13.6098 5.91042 13.3307 4.81181 12.731L4.62682 12.63L3.41104 12.9326C2.74235 13.099 2.19017 13.2304 2.18396 13.2245C2.17775 13.2187 2.31494 12.723 2.48884 12.1231C2.6627 11.5232 2.80624 11.0103 2.80779 10.9833C2.80934 10.9564 2.72385 10.8005 2.61781 10.637C1.05982 8.23505 1.46816 5.06741 3.59402 3.0641C4.6515 2.06757 5.99027 1.45517 7.49091 1.28149C7.89621 1.23458 8.90685 1.26678 9.32434 1.33991ZM5.11726 4.07036C4.92622 4.15995 4.57714 4.55048 4.43119 4.83791C4.14451 5.4025 4.15036 6.1142 4.44708 6.7732C4.81172 7.583 5.76576 8.73286 6.70759 9.49754C7.36775 10.0335 7.91934 10.3476 8.72971 10.6489C9.55753 10.9566 9.71633 10.9921 10.2658 10.9919C10.698 10.9917 10.7666 10.9839 10.9676 10.9122C11.298 10.7943 11.5446 10.6457 11.7903 10.4166C11.9809 10.2389 12.0193 10.1833 12.0817 9.99419C12.1595 9.75846 12.204 9.37909 12.1692 9.24776C12.151 9.1791 12.0576 9.12337 11.5883 8.90078C10.7284 8.49294 10.3818 8.35262 10.2345 8.35262C10.1138 8.35262 10.0933 8.36664 9.94735 8.5482C9.61379 8.96324 9.30773 9.28465 9.22798 9.30361C9.13248 9.3263 8.94481 9.26121 8.51135 9.05499C7.80956 8.72113 7.237 8.27467 6.74475 7.67747C6.47684 7.35246 6.23558 6.98208 6.23558 6.8958C6.23558 6.85885 6.35979 6.67512 6.51162 6.48755C6.80917 6.11989 6.89628 5.9827 6.89628 5.88172C6.89628 5.8463 6.83176 5.67309 6.75291 5.49685C6.67406 5.32057 6.51503 4.95811 6.3995 4.69133C6.2563 4.36069 6.15577 4.1739 6.08369 4.10459L5.97791 4.00289L5.61948 4.00292C5.31903 4.00292 5.2378 4.01384 5.11726 4.07036Z"/>
</symbol><symbol viewBox="0 0 17 15" id="whatsup-contacts" xmlns="http://www.w3.org/2000/svg">
    <path fill-rule="evenodd" clip-rule="evenodd" d="M7.25966 0.0447587C3.62134 0.470657 0.761875 3.23496 0.385344 6.69036C0.329549 7.20247 0.363343 8.17212 0.45409 8.66154C0.597725 9.43652 0.835411 10.1183 1.20484 10.815L1.39046 11.1652L0.83736 13.0788C0.533142 14.1313 0.289114 14.9958 0.295027 14.9999C0.300973 15.0041 1.2275 14.7768 2.35399 14.4949C3.99391 14.0846 4.4186 13.9883 4.48474 14.0122C4.53016 14.0286 4.74571 14.1187 4.96374 14.2123C5.67188 14.5165 6.41552 14.7182 7.19802 14.8184C7.74184 14.8881 8.69625 14.8877 9.22524 14.8175C10.9616 14.5873 12.5129 13.86 13.7356 12.703C14.375 12.098 14.8001 11.5445 15.2049 10.7905C15.5694 10.1114 15.8266 9.37114 15.9703 8.58732C16.0543 8.12919 16.0542 6.78302 15.9701 6.30293C15.828 5.49184 15.6088 4.84383 15.2341 4.12806C14.1678 2.09117 12.1988 0.63917 9.84444 0.15369C9.11054 0.00235671 8.01603 -0.0437692 7.25966 0.0447587ZM9.32434 1.33991C10.272 1.50592 11.0578 1.8058 11.835 2.29801C13.1619 3.13836 14.1386 4.44327 14.5247 5.89139C14.8082 6.95485 14.7859 8.16273 14.4639 9.18533C13.9432 10.8387 12.7023 12.2305 11.0784 12.9822C10.1342 13.4193 9.26062 13.6098 8.20116 13.6098C6.98686 13.6098 5.91042 13.3307 4.81181 12.731L4.62682 12.63L3.41104 12.9326C2.74235 13.099 2.19017 13.2304 2.18396 13.2245C2.17775 13.2187 2.31494 12.723 2.48884 12.1231C2.6627 11.5232 2.80624 11.0103 2.80779 10.9833C2.80934 10.9564 2.72385 10.8005 2.61781 10.637C1.05982 8.23505 1.46816 5.06741 3.59402 3.0641C4.6515 2.06757 5.99027 1.45517 7.49091 1.28149C7.89621 1.23458 8.90685 1.26678 9.32434 1.33991ZM5.11726 4.07036C4.92622 4.15995 4.57714 4.55048 4.43119 4.83791C4.14451 5.4025 4.15036 6.1142 4.44708 6.7732C4.81172 7.583 5.76576 8.73286 6.70759 9.49754C7.36775 10.0335 7.91934 10.3476 8.72971 10.6489C9.55753 10.9566 9.71633 10.9921 10.2658 10.9919C10.698 10.9917 10.7666 10.9839 10.9676 10.9122C11.298 10.7943 11.5446 10.6457 11.7903 10.4166C11.9809 10.2389 12.0193 10.1833 12.0817 9.99419C12.1595 9.75846 12.204 9.37909 12.1692 9.24776C12.151 9.1791 12.0576 9.12337 11.5883 8.90078C10.7284 8.49294 10.3818 8.35262 10.2345 8.35262C10.1138 8.35262 10.0933 8.36664 9.94735 8.5482C9.61379 8.96324 9.30773 9.28465 9.22798 9.30361C9.13248 9.3263 8.94481 9.26121 8.51135 9.05499C7.80956 8.72113 7.237 8.27467 6.74475 7.67747C6.47684 7.35246 6.23558 6.98208 6.23558 6.8958C6.23558 6.85885 6.35979 6.67512 6.51162 6.48755C6.80917 6.11989 6.89628 5.9827 6.89628 5.88172C6.89628 5.8463 6.83176 5.67309 6.75291 5.49685C6.67406 5.32057 6.51503 4.95811 6.3995 4.69133C6.2563 4.36069 6.15577 4.1739 6.08369 4.10459L5.97791 4.00289L5.61948 4.00292C5.31903 4.00292 5.2378 4.01384 5.11726 4.07036Z"/>
</symbol><symbol viewBox="0 0 28 19" id="youtube" xmlns="http://www.w3.org/2000/svg">
    <path d="M14.0173 19H13.9893C13.9026 19 5.22559 18.9837 3.0364 18.4074C2.44488 18.253 1.9056 17.9506 1.47255 17.5306C1.03949 17.1105 0.727859 16.5876 0.568842 16.0141C0.175185 13.8613 -0.0149134 11.6782 0.000912319 9.49186C-0.00925074 7.30197 0.185992 5.11572 0.584229 2.96011C0.74774 2.38568 1.06081 1.86163 1.49341 1.43825C1.926 1.01488 2.46359 0.706388 3.05458 0.542392C5.18362 1.19209e-07 13.6214 0 13.9795 0H14.0089C14.097 0 22.7964 0.0162715 24.9632 0.592563C26.1648 0.908507 27.1035 1.81837 27.428 2.98316C27.8337 5.14459 28.0253 7.33721 27.9973 9.5339C28.0071 11.7211 27.8114 13.9047 27.4126 16.0575C27.2515 16.6304 26.9386 17.1524 26.505 17.5718C26.0714 17.9911 25.5322 18.2933 24.9409 18.4481C22.8146 18.9946 14.3754 19 14.0173 19V19ZM11.2196 5.4307L11.2126 13.5666L18.5034 9.49864L11.2196 5.4307Z"/>
</symbol></svg>