<?xml version="1.0" encoding="utf-8"?><svg viewBox="0 0 264 84" xmlns="http://www.w3.org/2000/svg" xmlns:xlink="http://www.w3.org/1999/xlink"><style>:root>svg{display:none}:root>svg:target{display:block}</style><svg fill="none" viewBox="0 0 25 15" id="arrow-down" xmlns="http://www.w3.org/2000/svg">
    <path d="m1.219 3.438 10.5 10.53c.125.126.26.214.406.266.146.052.302.079.469.079.166 0 .323-.027.469-.08a1.09 1.09 0 0 0 .406-.264L24 3.438c.292-.292.438-.657.438-1.094 0-.438-.157-.813-.47-1.125A1.5 1.5 0 0 0 22.876.75c-.417 0-.781.156-1.094.469l-9.187 9.187L3.406 1.22A1.464 1.464 0 0 0 2.33.78c-.428 0-.798.156-1.11.469A1.499 1.499 0 0 0 .75 2.344c0 .416.156.781.469 1.094Z" fill="#000"/>
</svg><svg fill="none" viewBox="0 0 11 19" id="experts-slider-arrow" xmlns="http://www.w3.org/2000/svg">
    <path d="m2.3 18.575 8.425-8.4c.1-.1.17-.208.212-.325.042-.117.063-.242.063-.375s-.021-.258-.063-.375a.871.871 0 0 0-.212-.325L2.3.35A1.187 1.187 0 0 0 1.425 0c-.35 0-.65.125-.9.375a1.2 1.2 0 0 0-.375.875c0 .333.125.625.375.875l7.35 7.35-7.35 7.35c-.233.233-.35.52-.35.862 0 .342.125.638.375.888s.542.375.875.375a1.2 1.2 0 0 0 .875-.375Z" fill="#000"/>
</svg><svg fill="none" viewBox="0 0 23 30" id="location-icon" xmlns="http://www.w3.org/2000/svg">
    <path d="M11.5 30S23 19.339 23 11.25c0-2.984-1.212-5.845-3.368-7.955A11.63 11.63 0 0 0 11.5 0a11.63 11.63 0 0 0-8.132 3.295A11.127 11.127 0 0 0 0 11.25C0 19.339 11.5 30 11.5 30Zm0-13.125a5.815 5.815 0 0 1-4.066-1.648A5.564 5.564 0 0 1 5.75 11.25c0-1.492.606-2.923 1.684-3.977A5.815 5.815 0 0 1 11.5 5.625c1.525 0 2.988.593 4.066 1.648a5.564 5.564 0 0 1 1.684 3.977 5.564 5.564 0 0 1-1.684 3.977 5.816 5.816 0 0 1-4.066 1.648Z" fill="#423D8A"/>
</svg><svg version="1.0" viewBox="0 0 198 42" id="logotype" xmlns="http://www.w3.org/2000/svg">
    <path d="M6.4 6.5c2.8 2.6 2.8 2.6 2.4 14.6-.3 11.3-.5 12.2-2.7 14C3.8 37 3.9 37 20.8 37c9.6 0 18.3-.5 19.9-1.1 4.4-1.6 9-6.7 10.3-11.5l1.3-4.4h5.2c4.1 0 5.6-.5 7.3-2.3 3-3.2 2.9-8.1-.3-11.2-2.3-2.3-3.1-2.5-12.7-2.4-8.2 0-9.8.3-8 1.1 1.2.6 2.5 2.2 2.8 3.5 1.1 4.3-.2 18.3-1.8 19.9-1.3 1.3-2 .8-6.6-4.5-2.9-3.3-5.2-6.2-5.2-6.6 0-.3 1.3-1.8 3-3.2 3.7-3.1 3.8-5.5.3-8.3C31.4 2.2 24 5.4 24 11.3c0 1.7.7 3.9 1.7 4.9 1.5 1.7 1.4 2-2.5 5.7-4.6 4.2-5.4 7.9-2.6 11.9 1.4 2 1.4 2.2-.3 2.2-1 0-2.9-.7-4.1-1.6C14.1 33 14 32.2 14 20.5c0-12.2 0-12.4 2.6-14.4L19.3 4H3.7l2.7 2.5zm28.8.9c1.2 1.8.9 4-.8 6.4-1.9 2.8-3.1 2.8-5.5-.1-2.3-2.8-2.4-6.3-.1-7.6 1.9-1.1 5.3-.4 6.4 1.3zM58.8 7c4.4 4.1 1.5 12-4.3 12-2.4 0-2.5-.2-2.5-7 0-6.6.1-7 2.3-7 1.3 0 3.3.9 4.5 2zM34.7 26.5c5.4 5.9 5.9 6.7 4.2 7.5-1 .6-2.9 1-4.3 1-2.4 0-2.6-.4-2.7-4.3-.1-4.1-.1-4.1-1-1.2-.5 1.6-1.6 3.6-2.6 4.2-1.4 1.1-1.9.9-3.5-1.5-1-1.5-1.8-3.7-1.8-4.8 0-2.2 3.5-7.4 4.9-7.4.5 0 3.5 2.9 6.8 6.5zM84.6 10.2c-.8 7-.6 17.2.3 22.8.6 3.2.9-.2 1-11.8 0-8.9-.1-16.2-.3-16.2-.2 0-.6 2.4-1 5.2zM104 11.5V18h4c2.2 0 4-.5 4-1 0-.6-1.3-1-3-1-3 0-3-.1-3-5.5 0-3-.4-5.5-1-5.5s-1 2.8-1 6.5zM162 11.5c0 5 .3 6.5 1.4 6.5 1 0 1.6-1.3 1.8-3.8.2-2.5.8-3.7 1.8-3.7s1.6 1.2 1.8 3.7c.5 5.6 2.4 4.6 2-1-.3-4.4-.5-4.7-3-4.7-2 .1-2.8-.4-2.8-1.7 0-1-.7-1.8-1.5-1.8-1.2 0-1.5 1.4-1.5 6.5zM185 11.5c0 6.5 1.2 8.5 2.4 4.2l.7-2.2 1.6 2.2c.8 1.3 2.2 2.3 3 2.3 1.1 0 1-.6-.6-2.8-1.9-2.7-1.9-3-.4-4.5 2.2-2.2.8-3.5-1.5-1.4-2.6 2.4-3.2 2.1-3.2-1.3 0-1.7-.4-3-1-3s-1 2.8-1 6.5zM114.9 9.6c-1.1 1.3-.9 1.4 1.3.9 1.4-.4 2.8-.2 3.2.3.3.5-.8 1.2-2.5 1.6-2.5.5-3 1-2.7 2.8.2 1.9 1 2.3 4.1 2.5 3.6.1 3.7 0 3.7-3.6 0-5.6-4-8.2-7.1-4.5zm4.6 5.4c-.3.5-1.3 1-2.1 1s-1.4-.5-1.4-1c0-.6.9-1 2.1-1 1.1 0 1.7.4 1.4 1zM125 8.9c0 .5 1 1.1 2.2 1.3 2.1.3 2.1.3-.5 3.4-1.5 1.8-2.7 3.5-2.7 3.8 0 .3 1.8.6 4 .6 4.2 0 5.6-1.6 1.9-2.2l-2.1-.3 2.1-2.7c2.9-3.7 2.6-4.8-1.4-4.8-1.9 0-3.5.4-3.5.9zM136.3 8.7c-2.4.9-1.3 2.3 1.2 1.7 1.5-.4 2.5-.2 2.5.5 0 .6-.6 1.1-1.3 1.1-.7 0-2.2.6-3.2 1.4-2.8 2-.5 4.4 4 4.3 3.3-.1 3.5-.3 3.5-3.7 0-5.1-2.5-7.1-6.7-5.3zM140 15c0 .5-.7 1-1.5 1s-1.5-.5-1.5-1c0-.6.7-1 1.5-1s1.5.4 1.5 1zM145 13.1c0 3.7.4 4.9 1.5 4.9s1.5-1.1 1.5-3.5c0-2.2.6-3.8 1.5-4.1 2.5-1 1.7-2.1-1.5-2.2-2.9-.1-3 0-3 4.9zM152.6 10.3c-2 3-1 6.6 2.1 7.3 2.5.7 6.4-1.9 5-3.3-.4-.3-1.3-.1-1.9.5-2 2-3.8 1.4-3.8-1.2 0-3.1 1.6-4.2 3.6-2.5 1.9 1.6 3 .4 1.4-1.6-1.8-2.2-4.7-1.8-6.4.8zM174.2 12.7c.3 4.8.3 4.8 4.1 5l3.7.1v-4.9c0-5.7-1.7-6.6-2.2-1.2-.2 2.6-.8 3.8-1.8 3.8s-1.6-1.2-1.8-3.8c-.5-5.5-2.4-4.5-2 1zM104.7 24.5c-.9.8-1.3 2.4-1 3.5.3 1.1 0 2.6-.6 3.4-2.6 3.1.6 5.5 6.2 4.8 2.3-.4 2.7-.9 2.7-3.4s-.2-2.8-1.4-1.9c-1.8 1.5-3.4-.5-1.7-2.2 1.6-1.6 1.3-4.4-.5-5.1-2.1-.8-2-.8-3.7.9zm3.3 2c0 .8-.4 1.5-1 1.5-.5 0-1-.7-1-1.5s.5-1.5 1-1.5c.6 0 1 .7 1 1.5zm-.2 8.1c-1 1-2.8-.6-2.8-2.4 0-1.5.1-1.5 1.7.1.9.9 1.4 1.9 1.1 2.3zM119 30c0 4.7.3 6 1.5 6 .8 0 1.5-.9 1.5-2 0-1.5.7-2 2.5-2 3.1 0 5-3.2 3.5-6-.8-1.5-2.1-2-5-2h-4v6zm7-1.9c0 1.2-.7 1.9-2 1.9-1.4 0-2-.7-2-2.4 0-1.9.4-2.3 2-1.9 1.1.3 2 1.4 2 2.4zM150 25.5c0 .8-.5 1.5-1.2 1.5-.9 0-.9.3 0 1.2.7.7 1.2 2.7 1.2 4.5 0 2.7.4 3.3 2.2 3.3 1.7 0 1.9-.3 1-1.2-1.6-1.6-1.5-5.5.1-6.2 1-.5 1-.7 0-1.2-.7-.3-1.3-1.2-1.3-2s-.4-1.4-1-1.4c-.5 0-1 .7-1 1.5zM131.5 28c-.5.8 0 1 1.2.8 2.8-.4 2.9 1.6.1 2.2-2.5.6-3.7 3.8-1.9 5 .6.3 2.5.4 4.2.2 2.8-.4 3-.7 2.7-4.6-.3-3.6-.6-4.1-3-4.4-1.4-.2-2.9.2-3.3.8zm4.5 4.9c0 1.4-1.8 2.3-3 1.6-.6-.4-.8-1.1-.5-1.6.8-1.2 3.5-1.2 3.5 0zM141 31.6c0 2.4.5 4.4 1 4.4.6 0 1-1.4 1-3 0-1.8.6-3.3 1.5-3.6 2.3-.9 1.8-2.2-1-2.2-2.3 0-2.5.4-2.5 4.4zM156 31.7c0 2.3.5 4.3 1 4.3.6 0 1-.9 1-1.9 0-3 1.1-5.1 2.6-5.1.9 0 1.4 1.2 1.4 3.5 0 2.5.4 3.5 1.6 3.5 1.2 0 1.4-.9 1.2-4.3l-.3-4.2-4.2-.1-4.3-.1v4.4zM168.2 28.2c-1.4 1.4-1.5 4.7-.3 6.7 1.1 1.7 5.8 1.8 7.4.1.9-.9.5-1.1-2-.5-2.6.5-3.3.3-3.3-.9 0-1.1.9-1.6 3-1.6 1.8 0 3-.5 3-1.3 0-1.9-2.1-3.7-4.5-3.7-1.2 0-2.6.5-3.3 1.2zm5.8 1.9c0 .5-.9.9-2 .9-1.9 0-2.6-1.1-1.4-2.3.8-.8 3.4.3 3.4 1.4zM178 31.7c0 3.2.4 4.3 1.5 4.3 1 0 1.5-1.1 1.5-3.5s.5-3.5 1.5-3.5c.8 0 1.5-.4 1.5-.9s-1.3-.9-3-.9c-2.9.1-3 .3-3 4.5zM185.7 28.3c-.7 1.9.4 3.3 3.1 4.1 3.5 1.1 2.7 2.9-1 2.1-2.6-.6-3-.4-2.1.5 1.6 1.7 6.3 1.6 7.4-.1 1.4-2.2 1.1-2.6-2.1-3.8-3.8-1.3-4.1-3.4-.4-2.5 1.9.5 2.5.4 2-.5-1-1.5-6.3-1.4-6.9.2zM54.1 34.4c-.9 1-.8 1.6.3 2.5 1 .9 1.6.8 2.5-.3.9-1 .8-1.6-.3-2.5-1-.9-1.6-.8-2.5.3z"/>
</svg><svg fill="none" viewBox="0 0 20 20" id="phone" xmlns="http://www.w3.org/2000/svg">
    <path d="M15.465 20c-.195 0-.389-.022-.579-.065a19.49 19.49 0 0 1-9.62-5.18 19.486 19.486 0 0 1-5.21-9.619 2.77 2.77 0 0 1 .067-1.371 2.72 2.72 0 0 1 .715-1.162L3.153.323a1.153 1.153 0 0 1 .892-.319c.168.018.33.073.475.162.145.09.27.21.364.353l2.894 4.375a.963.963 0 0 1-.064 1.124L6.261 7.794a11.213 11.213 0 0 0 2.414 3.487 11.138 11.138 0 0 0 3.514 2.42l1.8-1.461a.937.937 0 0 1 1.077-.072l4.37 2.89c.15.09.277.216.373.365a1.202 1.202 0 0 1-.136 1.475l-2.257 2.285c-.257.261-.561.468-.896.608-.335.14-.693.211-1.055.209Z" fill="#fff"/>
</svg><svg fill="none" viewBox="0 0 84 84" id="player-btn" xmlns="http://www.w3.org/2000/svg">
    <path d="M31.583 60.75 60.75 42 31.583 23.25v37.5ZM42 83.667c-5.764 0-11.18-1.095-16.25-3.284-5.07-2.186-9.48-5.154-13.23-8.904S5.803 63.32 3.617 58.25C1.427 53.18.333 47.764.333 42c0-5.764 1.094-11.18 3.283-16.25 2.186-5.07 5.155-9.48 8.905-13.23 3.75-3.75 8.16-6.719 13.229-8.908C30.82 1.426 36.236.333 42 .333c5.764 0 11.18 1.093 16.25 3.28C63.32 5.8 67.729 8.77 71.479 12.52c3.75 3.75 6.718 8.16 8.904 13.229 2.189 5.07 3.283 10.486 3.283 16.25 0 5.764-1.094 11.18-3.283 16.25-2.186 5.07-5.154 9.48-8.904 13.23s-8.16 6.717-13.23 8.903c-5.069 2.19-10.485 3.284-16.25 3.284Z" fill="#F9D706"/>
</svg><svg fill="none" viewBox="0 0 48 48" id="star" xmlns="http://www.w3.org/2000/svg">
    <path d="m39.3 18.08-9.68-.84-3.78-8.9c-.68-1.62-3-1.62-3.68 0l-3.78 8.92-9.66.82c-1.76.14-2.48 2.34-1.14 3.5l7.34 6.36-2.2 9.44c-.4 1.72 1.46 3.08 2.98 2.16l8.3-5 8.3 5.02c1.52.92 3.38-.44 2.98-2.16l-2.2-9.46 7.34-6.36c1.34-1.16.64-3.36-1.12-3.5Z" fill="#F9D706"/>
</svg><svg fill="none" viewBox="0 0 18 15" id="start-tg" xmlns="http://www.w3.org/2000/svg">
    <path d="m17.3.628-2.68 13.508s-.375.937-1.405.487l-6.183-4.74-2.248-1.087L1 7.522s-.581-.206-.637-.655c-.057-.45.655-.693.655-.693L16.062.272S17.3-.271 17.3.628" fill="#fff"/>
    <path d="M6.554 13.985s-.18-.017-.405-.729c-.225-.712-1.368-4.459-1.368-4.459l9.087-5.77s.524-.319.506 0c0 0 .093.056-.188.318-.28.263-7.138 6.426-7.138 6.426" fill="#D2E5F1" fill-opacity=".99"/>
    <path d="M9.404 11.7 6.96 13.93s-.191.146-.4.055l.468-4.142" fill="#B5CFE4"/>
</svg><svg fill="none" viewBox="0 0 30 31" id="start-whatsapp" xmlns="http://www.w3.org/2000/svg">
    <path d="m7.93 25.995.49.245c2.043 1.227 4.332 1.799 6.621 1.799 7.194 0 13.08-5.886 13.08-13.08 0-3.432-1.39-6.784-3.843-9.236-2.452-2.453-5.722-3.842-9.237-3.842-7.193 0-13.079 5.885-12.997 13.16 0 2.453.736 4.823 1.962 6.867l.327.49-1.308 4.823 4.904-1.226Z" fill="#00E676"/>
    <path d="M25.668 4.414C22.887 1.554 19.046 0 15.123 0 6.785 0 .082 6.785.163 15.04c0 2.617.736 5.15 1.962 7.44L0 30.245l7.93-2.043C10.135 29.428 12.587 30 15.04 30 23.298 30 30 23.215 30 14.96c0-4.006-1.553-7.767-4.332-10.546ZM15.123 27.466c-2.207 0-4.415-.572-6.295-1.717l-.49-.245-4.741 1.226 1.226-4.659-.327-.49C.899 15.776 2.616 8.092 8.5 4.495 14.387.899 21.99 2.616 25.586 8.5c3.597 5.886 1.88 13.488-4.006 17.085-1.88 1.226-4.169 1.88-6.457 1.88Zm7.193-9.074-.9-.408s-1.307-.572-2.124-.981c-.082 0-.164-.082-.246-.082-.245 0-.408.082-.572.164 0 0-.082.081-1.226 1.39a.45.45 0 0 1-.409.244h-.082c-.081 0-.245-.081-.327-.163l-.408-.164c-.9-.408-1.717-.899-2.37-1.553-.164-.163-.41-.327-.573-.49-.572-.572-1.145-1.226-1.553-1.962l-.082-.164c-.082-.081-.082-.163-.163-.326 0-.164 0-.327.081-.41 0 0 .327-.408.572-.653.164-.164.246-.409.41-.572.163-.245.245-.572.163-.818-.082-.409-1.063-2.616-1.308-3.106-.164-.245-.327-.327-.572-.409h-.9c-.163 0-.326.082-.49.082l-.082.082c-.163.082-.327.245-.49.327-.164.163-.245.327-.409.49-.572.736-.9 1.635-.9 2.534 0 .654.164 1.308.41 1.88l.081.246a13.616 13.616 0 0 0 3.025 4.168l.327.328c.245.245.49.408.654.653 1.716 1.472 3.678 2.534 5.885 3.107.246.081.573.081.818.163h.817c.409 0 .9-.163 1.226-.327.246-.163.41-.163.573-.327l.163-.163c.164-.164.327-.245.49-.409.164-.163.328-.327.41-.49.163-.327.245-.736.326-1.145v-.572s-.081-.082-.245-.164Z" fill="#fff"/>
</svg><svg fill="none" viewBox="0 0 17 14" id="telegram" xmlns="http://www.w3.org/2000/svg">
    <path d="M1.287 5.801C6.18 3.65 12.512 1.025 13.386.661c2.293-.95 2.996-.768 2.645 1.337-.252 1.514-.978 6.524-1.558 9.642-.344 1.85-1.115 2.069-2.327 1.268-.584-.384-3.527-2.331-4.166-2.788-.583-.417-1.388-.918-.379-1.905.36-.351 2.712-2.598 4.545-4.347.24-.23-.061-.607-.339-.423a2209.267 2209.267 0 0 0-6.332 4.21c-.66.447-1.292.652-2.427.325-.859-.246-1.696-.54-2.023-.652-1.256-.431-.958-.99.262-1.527Z" fill="#fff"/>
</svg><svg fill="none" viewBox="0 0 17 14" id="tg-contacts" xmlns="http://www.w3.org/2000/svg">
    <path d="M1.287 5.801C6.18 3.65 12.512 1.025 13.386.661c2.293-.95 2.996-.768 2.645 1.337-.252 1.514-.978 6.524-1.558 9.642-.344 1.85-1.115 2.069-2.327 1.268-.584-.384-3.527-2.331-4.166-2.788-.583-.417-1.388-.918-.379-1.905.36-.351 2.712-2.598 4.545-4.347.24-.23-.061-.607-.339-.423a2209.267 2209.267 0 0 0-6.332 4.21c-.66.447-1.292.652-2.427.325-.859-.246-1.696-.54-2.023-.652-1.256-.431-.958-.99.262-1.527Z" fill="#fff"/>
</svg><svg fill="none" viewBox="0 0 28 28" id="vk" xmlns="http://www.w3.org/2000/svg">
    <path d="M14 0C6.268 0 0 6.268 0 14s6.268 14 14 14 14-6.268 14-14S21.732 0 14 0Zm5.384 15.795s1.238 1.222 1.543 1.79c.009.011.013.023.016.029.124.208.153.37.092.491-.102.201-.452.3-.572.31h-2.187c-.152 0-.47-.04-.855-.305-.296-.207-.587-.547-.872-.878-.424-.493-.792-.92-1.162-.92a.444.444 0 0 0-.139.023c-.28.09-.638.49-.638 1.554 0 .333-.263.524-.448.524H13.16c-.341 0-2.119-.12-3.694-1.78-1.928-2.035-3.663-6.115-3.678-6.153-.11-.264.117-.406.363-.406h2.21c.294 0 .39.18.458.338.078.186.367.922.841 1.75.768 1.35 1.24 1.9 1.617 1.9.071-.002.14-.02.203-.053.493-.274.401-2.032.38-2.396 0-.069-.002-.786-.255-1.13-.18-.25-.488-.345-.675-.38a.803.803 0 0 1 .29-.246c.339-.17.948-.194 1.553-.194h.337c.657.009.826.051 1.064.11.48.116.491.427.449 1.49-.013.302-.026.643-.026 1.045 0 .088-.005.181-.005.28-.014.541-.032 1.155.35 1.408.05.03.107.047.166.048.133 0 .533 0 1.615-1.857.333-.597.623-1.218.867-1.858.022-.038.087-.154.162-.2a.388.388 0 0 1 .181-.042h2.597c.283 0 .477.043.514.152.064.173-.012.703-1.198 2.308l-.529.699c-1.075 1.409-1.075 1.48.067 2.55Z" fill="#B3B3BC"/>
</svg><svg fill="none" viewBox="0 0 17 15" id="whatsup" xmlns="http://www.w3.org/2000/svg">
    <path fill-rule="evenodd" clip-rule="evenodd" d="M7.26.045C3.62.47.762 3.235.385 6.69c-.055.512-.022 1.482.07 1.972a7.3 7.3 0 0 0 .75 2.153l.185.35-.553 1.914a81.005 81.005 0 0 0-.542 1.92c.006.005.933-.222 2.059-.504 1.64-.41 2.065-.507 2.13-.483.046.017.262.107.48.2a8.297 8.297 0 0 0 2.234.606c.544.07 1.498.07 2.027 0 1.737-.23 3.288-.958 4.51-2.115a7.056 7.056 0 0 0 1.47-1.912c.364-.68.622-1.42.765-2.204.084-.458.084-1.804 0-2.284a7.051 7.051 0 0 0-.736-2.175C14.168 2.091 12.2.64 9.844.154 9.111.002 8.016-.044 7.26.044ZM9.324 1.34a6.653 6.653 0 0 1 2.511.958c1.327.84 2.304 2.145 2.69 3.593a6.082 6.082 0 0 1-.061 3.294c-.52 1.654-1.762 3.045-3.386 3.797a6.485 6.485 0 0 1-2.877.628c-1.214 0-2.29-.28-3.39-.879l-.184-.101-1.216.303c-.669.166-1.22.297-1.227.292a24.07 24.07 0 0 1 .305-1.102c.174-.6.317-1.113.319-1.14.001-.027-.084-.183-.19-.346-1.558-2.402-1.15-5.57.976-7.573 1.058-.996 2.396-1.609 3.897-1.783.405-.046 1.416-.014 1.833.059ZM5.117 4.07c-.19.09-.54.48-.686.768-.286.564-.28 1.276.016 1.935.365.81 1.319 1.96 2.26 2.725.66.536 1.212.85 2.023 1.15.828.309.986.344 1.536.344.432 0 .5-.008.702-.08.33-.118.577-.266.822-.495.19-.178.23-.234.292-.423.077-.236.122-.615.087-.746-.018-.069-.111-.125-.58-.347-.86-.408-1.207-.548-1.354-.548-.121 0-.142.014-.288.195-.333.415-.64.737-.719.756-.096.022-.283-.043-.717-.249a5.034 5.034 0 0 1-1.766-1.378c-.268-.325-.51-.695-.51-.781 0-.037.125-.22.277-.408.297-.368.384-.505.384-.606 0-.036-.064-.209-.143-.385a92.447 92.447 0 0 1-.354-.806c-.143-.33-.243-.517-.315-.586l-.106-.102h-.359c-.3 0-.381.01-.502.067Z" fill="#fff"/>
</svg><svg fill="none" viewBox="0 0 17 15" id="whatsup-contacts" xmlns="http://www.w3.org/2000/svg">
    <path fill-rule="evenodd" clip-rule="evenodd" d="M7.26.045C3.62.47.762 3.235.385 6.69c-.055.512-.022 1.482.07 1.972a7.3 7.3 0 0 0 .75 2.153l.185.35-.553 1.914a81.005 81.005 0 0 0-.542 1.92c.006.005.933-.222 2.059-.504 1.64-.41 2.065-.507 2.13-.483.046.017.262.107.48.2a8.297 8.297 0 0 0 2.234.606c.544.07 1.498.07 2.027 0 1.737-.23 3.288-.958 4.51-2.115a7.056 7.056 0 0 0 1.47-1.912c.364-.68.622-1.42.765-2.204.084-.458.084-1.804 0-2.284a7.051 7.051 0 0 0-.736-2.175C14.168 2.091 12.2.64 9.844.154 9.111.002 8.016-.044 7.26.044ZM9.324 1.34a6.653 6.653 0 0 1 2.511.958c1.327.84 2.304 2.145 2.69 3.593a6.082 6.082 0 0 1-.061 3.294c-.52 1.654-1.762 3.045-3.386 3.797a6.485 6.485 0 0 1-2.877.628c-1.214 0-2.29-.28-3.39-.879l-.184-.101-1.216.303c-.669.166-1.22.297-1.227.292a24.07 24.07 0 0 1 .305-1.102c.174-.6.317-1.113.319-1.14.001-.027-.084-.183-.19-.346-1.558-2.402-1.15-5.57.976-7.573 1.058-.996 2.396-1.609 3.897-1.783.405-.046 1.416-.014 1.833.059ZM5.117 4.07c-.19.09-.54.48-.686.768-.286.564-.28 1.276.016 1.935.365.81 1.319 1.96 2.26 2.725.66.536 1.212.85 2.023 1.15.828.309.986.344 1.536.344.432 0 .5-.008.702-.08.33-.118.577-.266.822-.495.19-.178.23-.234.292-.423.077-.236.122-.615.087-.746-.018-.069-.111-.125-.58-.347-.86-.408-1.207-.548-1.354-.548-.121 0-.142.014-.288.195-.333.415-.64.737-.719.756-.096.022-.283-.043-.717-.249a5.034 5.034 0 0 1-1.766-1.378c-.268-.325-.51-.695-.51-.781 0-.037.125-.22.277-.408.297-.368.384-.505.384-.606 0-.036-.064-.209-.143-.385a92.447 92.447 0 0 1-.354-.806c-.143-.33-.243-.517-.315-.586l-.106-.102h-.359c-.3 0-.381.01-.502.067Z" fill="#fff"/>
</svg><svg fill="none" viewBox="0 0 28 19" id="youtube" xmlns="http://www.w3.org/2000/svg">
    <path d="M14.017 19h-.028c-.086 0-8.763-.016-10.953-.593a3.524 3.524 0 0 1-1.563-.876 3.368 3.368 0 0 1-.904-1.517A34.852 34.852 0 0 1 0 9.492c-.01-2.19.185-4.376.583-6.532a3.454 3.454 0 0 1 .91-1.522c.432-.423.97-.732 1.56-.896C5.185 0 13.622 0 13.98 0h.03c.088 0 8.787.016 10.954.593 1.202.316 2.14 1.225 2.465 2.39.406 2.162.597 4.354.57 6.55a34.95 34.95 0 0 1-.585 6.525 3.382 3.382 0 0 1-.908 1.514c-.434.42-.973.721-1.564.876-2.126.547-10.566.552-10.924.552ZM11.22 5.43l-.007 8.137 7.29-4.068L11.22 5.43Z" fill="#B3B3BC"/>
</svg></svg>