<svg width="11" height="19" viewBox="0 0 11 19" fill="none" xmlns="http://www.w3.org/2000/svg">
<path d="M2.3 18.575L10.725 10.175C10.825 10.075 10.8957 9.96667 10.937 9.85C10.979 9.73333 11 9.60833 11 9.475C11 9.34167 10.979 9.21667 10.937 9.1C10.8957 8.98333 10.825 8.875 10.725 8.775L2.3 0.35C2.06667 0.116667 1.775 0 1.425 0C1.075 0 0.775001 0.125 0.525001 0.375C0.275001 0.625 0.150001 0.916667 0.150001 1.25C0.150001 1.58333 0.275001 1.875 0.525001 2.125L7.875 9.475L0.525001 16.825C0.291667 17.0583 0.175 17.3457 0.175 17.687C0.175 18.029 0.3 18.325 0.55 18.575C0.8 18.825 1.09167 18.95 1.425 18.95C1.75833 18.95 2.05 18.825 2.3 18.575Z" fill="black"/>
</svg>
