<?xml version="1.0" standalone="no"?>
<!DOCTYPE svg PUBLIC "-//W3C//DTD SVG 20010904//EN"
 "http://www.w3.org/TR/2001/REC-SVG-20010904/DTD/svg10.dtd">
<svg version="1.0" xmlns="http://www.w3.org/2000/svg"
 width="198.000000pt" height="42.000000pt" viewBox="0 0 198.000000 42.000000"
 preserveAspectRatio="xMidYMid meet">

<g transform="translate(0.000000,42.000000) scale(0.100000,-0.100000)"
fill="#000000" stroke="none">
<path d="M64 355 c28 -26 28 -26 24 -146 -3 -113 -5 -122 -27 -140 -23 -19
-22 -19 147 -19 96 0 183 5 199 11 44 16 90 67 103 115 l13 44 52 0 c41 0 56
5 73 23 30 32 29 81 -3 112 -23 23 -31 25 -127 24 -82 0 -98 -3 -80 -11 12 -6
25 -22 28 -35 11 -43 -2 -183 -18 -199 -13 -13 -20 -8 -66 45 -29 33 -52 62
-52 66 0 3 13 18 30 32 37 31 38 55 3 83 -49 38 -123 6 -123 -53 0 -17 7 -39
17 -49 15 -17 14 -20 -25 -57 -46 -42 -54 -79 -26 -119 14 -20 14 -22 -3 -22
-10 0 -29 7 -41 16 -21 14 -22 22 -22 139 0 122 0 124 26 144 l27 21 -78 0
-78 0 27 -25z m288 -9 c12 -18 9 -40 -8 -64 -19 -28 -31 -28 -55 1 -23 28 -24
63 -1 76 19 11 53 4 64 -13z m236 4 c44 -41 15 -120 -43 -120 -24 0 -25 2 -25
70 0 66 1 70 23 70 13 0 33 -9 45 -20z m-241 -195 c54 -59 59 -67 42 -75 -10
-6 -29 -10 -43 -10 -24 0 -26 4 -27 43 -1 41 -1 41 -10 12 -5 -16 -16 -36 -26
-42 -14 -11 -19 -9 -35 15 -10 15 -18 37 -18 48 0 22 35 74 49 74 5 0 35 -29
68 -65z"/>
<path d="M846 318 c-8 -70 -6 -172 3 -228 6 -32 9 2 10 118 0 89 -1 162 -3
162 -2 0 -6 -24 -10 -52z"/>
<path d="M1040 305 l0 -65 40 0 c22 0 40 5 40 10 0 6 -13 10 -30 10 -30 0 -30
1 -30 55 0 30 -4 55 -10 55 -6 0 -10 -28 -10 -65z"/>
<path d="M1620 305 c0 -50 3 -65 14 -65 10 0 16 13 18 38 2 25 8 37 18 37 10
0 16 -12 18 -37 5 -56 24 -46 20 10 -3 44 -5 47 -30 47 -20 -1 -28 4 -28 17 0
10 -7 18 -15 18 -12 0 -15 -14 -15 -65z"/>
<path d="M1850 305 c0 -65 12 -85 24 -42 l7 22 16 -22 c8 -13 22 -23 30 -23
11 0 10 6 -6 28 -19 27 -19 30 -4 45 22 22 8 35 -15 14 -26 -24 -32 -21 -32
13 0 17 -4 30 -10 30 -6 0 -10 -28 -10 -65z"/>
<path d="M1149 324 c-11 -13 -9 -14 13 -9 14 4 28 2 32 -3 3 -5 -8 -12 -25
-16 -25 -5 -30 -10 -27 -28 2 -19 10 -23 41 -25 36 -1 37 0 37 36 0 56 -40 82
-71 45z m46 -54 c-3 -5 -13 -10 -21 -10 -8 0 -14 5 -14 10 0 6 9 10 21 10 11
0 17 -4 14 -10z"/>
<path d="M1250 331 c0 -5 10 -11 22 -13 21 -3 21 -3 -5 -34 -15 -18 -27 -35
-27 -38 0 -3 18 -6 40 -6 42 0 56 16 19 22 l-21 3 21 27 c29 37 26 48 -14 48
-19 0 -35 -4 -35 -9z"/>
<path d="M1363 333 c-24 -9 -13 -23 12 -17 15 4 25 2 25 -5 0 -6 -6 -11 -13
-11 -7 0 -22 -6 -32 -14 -28 -20 -5 -44 40 -43 33 1 35 3 35 37 0 51 -25 71
-67 53z m37 -63 c0 -5 -7 -10 -15 -10 -8 0 -15 5 -15 10 0 6 7 10 15 10 8 0
15 -4 15 -10z"/>
<path d="M1450 289 c0 -37 4 -49 15 -49 11 0 15 11 15 35 0 22 6 38 15 41 25
10 17 21 -15 22 -29 1 -30 0 -30 -49z"/>
<path d="M1526 317 c-20 -30 -10 -66 21 -73 25 -7 64 19 50 33 -4 3 -13 1 -19
-5 -20 -20 -38 -14 -38 12 0 31 16 42 36 25 19 -16 30 -4 14 16 -18 22 -47 18
-64 -8z"/>
<path d="M1742 293 c3 -48 3 -48 41 -50 l37 -1 0 49 c0 57 -17 66 -22 12 -2
-26 -8 -38 -18 -38 -10 0 -16 12 -18 38 -5 55 -24 45 -20 -10z"/>
<path d="M1047 175 c-9 -8 -13 -24 -10 -35 3 -11 0 -26 -6 -34 -26 -31 6 -55
62 -48 23 4 27 9 27 34 0 25 -2 28 -14 19 -18 -15 -34 5 -17 22 16 16 13 44
-5 51 -21 8 -20 8 -37 -9z m33 -20 c0 -8 -4 -15 -10 -15 -5 0 -10 7 -10 15 0
8 5 15 10 15 6 0 10 -7 10 -15z m-2 -81 c-10 -10 -28 6 -28 24 0 15 1 15 17
-1 9 -9 14 -19 11 -23z"/>
<path d="M1190 120 c0 -47 3 -60 15 -60 8 0 15 9 15 20 0 15 7 20 25 20 31 0
50 32 35 60 -8 15 -21 20 -50 20 l-40 0 0 -60z m70 19 c0 -12 -7 -19 -20 -19
-14 0 -20 7 -20 24 0 19 4 23 20 19 11 -3 20 -14 20 -24z"/>
<path d="M1500 165 c0 -8 -5 -15 -12 -15 -9 0 -9 -3 0 -12 7 -7 12 -27 12 -45
0 -27 4 -33 22 -33 17 0 19 3 10 12 -16 16 -15 55 1 62 10 5 10 7 0 12 -7 3
-13 12 -13 20 0 8 -4 14 -10 14 -5 0 -10 -7 -10 -15z"/>
<path d="M1315 140 c-5 -8 0 -10 12 -8 28 4 29 -16 1 -22 -25 -6 -37 -38 -19
-50 6 -3 25 -4 42 -2 28 4 30 7 27 46 -3 36 -6 41 -30 44 -14 2 -29 -2 -33 -8z
m45 -49 c0 -14 -18 -23 -30 -16 -6 4 -8 11 -5 16 8 12 35 12 35 0z"/>
<path d="M1410 104 c0 -24 5 -44 10 -44 6 0 10 14 10 30 0 18 6 33 15 36 23 9
18 22 -10 22 -23 0 -25 -4 -25 -44z"/>
<path d="M1560 103 c0 -23 5 -43 10 -43 6 0 10 9 10 19 0 30 11 51 26 51 9 0
14 -12 14 -35 0 -25 4 -35 16 -35 12 0 14 9 12 43 l-3 42 -42 1 -43 1 0 -44z"/>
<path d="M1682 138 c-14 -14 -15 -47 -3 -67 11 -17 58 -18 74 -1 9 9 5 11 -20
5 -26 -5 -33 -3 -33 9 0 11 9 16 30 16 18 0 30 5 30 13 0 19 -21 37 -45 37
-12 0 -26 -5 -33 -12z m58 -19 c0 -5 -9 -9 -20 -9 -19 0 -26 11 -14 23 8 8 34
-3 34 -14z"/>
<path d="M1780 103 c0 -32 4 -43 15 -43 10 0 15 11 15 35 0 24 5 35 15 35 8 0
15 4 15 9 0 5 -13 9 -30 9 -29 -1 -30 -3 -30 -45z"/>
<path d="M1857 137 c-7 -19 4 -33 31 -41 35 -11 27 -29 -10 -21 -26 6 -30 4
-21 -5 16 -17 63 -16 74 1 14 22 11 26 -21 38 -38 13 -41 34 -4 25 19 -5 25
-4 20 5 -10 15 -63 14 -69 -2z"/>
<path d="M541 76 c-9 -10 -8 -16 3 -25 10 -9 16 -8 25 3 9 10 8 16 -3 25 -10
9 -16 8 -25 -3z"/>
</g>
</svg>
