<svg width="84" height="84" viewBox="0 0 84 84" fill="none" xmlns="http://www.w3.org/2000/svg">
<path d="M31.583 60.75L60.7497 42L31.583 23.25V60.75ZM41.9997 83.6667C36.2358 83.6667 30.8191 82.5722 25.7497 80.3833C20.6802 78.1972 16.2705 75.2292 12.5205 71.4792C8.77051 67.7292 5.80245 63.3194 3.61634 58.25C1.42745 53.1805 0.333008 47.7639 0.333008 42C0.333008 36.2361 1.42745 30.8194 3.61634 25.75C5.80245 20.6806 8.77051 16.2708 12.5205 12.5208C16.2705 8.77083 20.6802 5.80138 25.7497 3.61249C30.8191 1.42638 36.2358 0.333328 41.9997 0.333328C47.7636 0.333328 53.1802 1.42638 58.2497 3.61249C63.3191 5.80138 67.7289 8.77083 71.4789 12.5208C75.2289 16.2708 78.1969 20.6806 80.383 25.75C82.5719 30.8194 83.6664 36.2361 83.6664 42C83.6664 47.7639 82.5719 53.1805 80.383 58.25C78.1969 63.3194 75.2289 67.7292 71.4789 71.4792C67.7289 75.2292 63.3191 78.1972 58.2497 80.3833C53.1802 82.5722 47.7636 83.6667 41.9997 83.6667Z" fill="#F9D706"/>
</svg>
