<svg width="17" height="15" viewBox="0 0 17 15" fill="none" xmlns="http://www.w3.org/2000/svg">
<path fill-rule="evenodd" clip-rule="evenodd" d="M7.25966 0.0447587C3.62134 0.470657 0.761875 3.23496 0.385344 6.69036C0.329549 7.20247 0.363343 8.17212 0.45409 8.66154C0.597725 9.43652 0.835411 10.1183 1.20484 10.815L1.39046 11.1652L0.83736 13.0788C0.533142 14.1313 0.289114 14.9958 0.295027 14.9999C0.300973 15.0041 1.2275 14.7768 2.35399 14.4949C3.99391 14.0846 4.4186 13.9883 4.48474 14.0122C4.53016 14.0286 4.74571 14.1187 4.96374 14.2123C5.67188 14.5165 6.41552 14.7182 7.19802 14.8184C7.74184 14.8881 8.69625 14.8877 9.22524 14.8175C10.9616 14.5873 12.5129 13.86 13.7356 12.703C14.375 12.098 14.8001 11.5445 15.2049 10.7905C15.5694 10.1114 15.8266 9.37114 15.9703 8.58732C16.0543 8.12919 16.0542 6.78302 15.9701 6.30293C15.828 5.49184 15.6088 4.84383 15.2341 4.12806C14.1678 2.09117 12.1988 0.63917 9.84444 0.15369C9.11054 0.00235671 8.01603 -0.0437692 7.25966 0.0447587ZM9.32434 1.33991C10.272 1.50592 11.0578 1.8058 11.835 2.29801C13.1619 3.13836 14.1386 4.44327 14.5247 5.89139C14.8082 6.95485 14.7859 8.16273 14.4639 9.18533C13.9432 10.8387 12.7023 12.2305 11.0784 12.9822C10.1342 13.4193 9.26062 13.6098 8.20116 13.6098C6.98686 13.6098 5.91042 13.3307 4.81181 12.731L4.62682 12.63L3.41104 12.9326C2.74235 13.099 2.19017 13.2304 2.18396 13.2245C2.17775 13.2187 2.31494 12.723 2.48884 12.1231C2.6627 11.5232 2.80624 11.0103 2.80779 10.9833C2.80934 10.9564 2.72385 10.8005 2.61781 10.637C1.05982 8.23505 1.46816 5.06741 3.59402 3.0641C4.6515 2.06757 5.99027 1.45517 7.49091 1.28149C7.89621 1.23458 8.90685 1.26678 9.32434 1.33991ZM5.11726 4.07036C4.92622 4.15995 4.57714 4.55048 4.43119 4.83791C4.14451 5.4025 4.15036 6.1142 4.44708 6.7732C4.81172 7.583 5.76576 8.73286 6.70759 9.49754C7.36775 10.0335 7.91934 10.3476 8.72971 10.6489C9.55753 10.9566 9.71633 10.9921 10.2658 10.9919C10.698 10.9917 10.7666 10.9839 10.9676 10.9122C11.298 10.7943 11.5446 10.6457 11.7903 10.4166C11.9809 10.2389 12.0193 10.1833 12.0817 9.99419C12.1595 9.75846 12.204 9.37909 12.1692 9.24776C12.151 9.1791 12.0576 9.12337 11.5883 8.90078C10.7284 8.49294 10.3818 8.35262 10.2345 8.35262C10.1138 8.35262 10.0933 8.36664 9.94735 8.5482C9.61379 8.96324 9.30773 9.28465 9.22798 9.30361C9.13248 9.3263 8.94481 9.26121 8.51135 9.05499C7.80956 8.72113 7.237 8.27467 6.74475 7.67747C6.47684 7.35246 6.23558 6.98208 6.23558 6.8958C6.23558 6.85885 6.35979 6.67512 6.51162 6.48755C6.80917 6.11989 6.89628 5.9827 6.89628 5.88172C6.89628 5.8463 6.83176 5.67309 6.75291 5.49685C6.67406 5.32057 6.51503 4.95811 6.3995 4.69133C6.2563 4.36069 6.15577 4.1739 6.08369 4.10459L5.97791 4.00289L5.61948 4.00292C5.31903 4.00292 5.2378 4.01384 5.11726 4.07036Z" fill="white"/>
</svg>
