<svg width="28" height="19" viewBox="0 0 28 19" fill="none" xmlns="http://www.w3.org/2000/svg">
<path d="M14.0173 19H13.9893C13.9026 19 5.22559 18.9837 3.0364 18.4074C2.44488 18.253 1.9056 17.9506 1.47255 17.5306C1.03949 17.1105 0.727859 16.5876 0.568842 16.0141C0.175185 13.8613 -0.0149134 11.6782 0.000912319 9.49186C-0.00925074 7.30197 0.185992 5.11572 0.584229 2.96011C0.74774 2.38568 1.06081 1.86163 1.49341 1.43825C1.926 1.01488 2.46359 0.706388 3.05458 0.542392C5.18362 1.19209e-07 13.6214 0 13.9795 0H14.0089C14.097 0 22.7964 0.0162715 24.9632 0.592563C26.1648 0.908507 27.1035 1.81837 27.428 2.98316C27.8337 5.14459 28.0253 7.33721 27.9973 9.5339C28.0071 11.7211 27.8114 13.9047 27.4126 16.0575C27.2515 16.6304 26.9386 17.1524 26.505 17.5718C26.0714 17.9911 25.5322 18.2933 24.9409 18.4481C22.8146 18.9946 14.3754 19 14.0173 19V19ZM11.2196 5.4307L11.2126 13.5666L18.5034 9.49864L11.2196 5.4307Z" fill="#B3B3BC"/>
</svg>
